<svg width="478" height="456" viewBox="0 0 478 456" fill="none" xmlns="http://www.w3.org/2000/svg">
<path d="M345 74H260L216 150.5L260 227.5H345L389 150.5L345 74Z" fill="#F9F1E8"/>
<path d="M215 151H128.5L86 227.5L130.5 304.5H215.5L260 227.5L215 151Z" fill="#D58E48" fill-opacity="0.3"/>
<path d="M344.5 227.5L259.5 228L215.5 305L260 381.5H345L389 304.5L344.5 227.5Z" fill="#D4C19E" fill-opacity="0.5"/>
<path d="M217.519 0.845703L259.952 73.7657L217.519 0.845703Z" stroke="#DF8E54" stroke-miterlimit="10"/>
<path d="M474.135 304.501H389.269L344.815 227.533H259.952L215.498 150.731H128.612L88.1992 77.8164" stroke="#DF8E54" stroke-miterlimit="10"/>
<path d="M1.31543 227.701H86.179L130.635 304.669H215.498L259.952 381.637H344.818L387.251 454.557L344.818 381.637H259.952L215.498 304.669H130.635L86.179 227.701H1.31543Z" stroke="#DF8E54" stroke-miterlimit="10"/>
<path d="M344.817 73.7632L387.25 0.845703L344.817 73.7632Z" stroke="#DF8E54" stroke-miterlimit="10"/>
<path d="M344.817 227.699L389.268 150.733L344.817 227.699Z" stroke="#DF8E54" stroke-miterlimit="10"/>
<path d="M215.498 150.731L259.951 73.7637L215.498 150.731Z" stroke="#DF8E54" stroke-miterlimit="10"/>
<path d="M86.1787 227.702L128.612 150.731L86.1787 227.702Z" stroke="#DF8E54" stroke-miterlimit="10"/>
<path d="M215.255 305.273L259.708 228.306L215.255 305.273Z" stroke="#DF8E54" stroke-miterlimit="10"/>
<path d="M345.108 381.315L389.562 304.35L345.108 381.315Z" stroke="#DF8E54" stroke-miterlimit="10"/>
<path d="M88.1992 377.586L130.632 304.669L88.1992 377.586Z" stroke="#DF8E54" stroke-miterlimit="10"/>
<path d="M217.519 454.555L259.952 381.635L217.519 454.555Z" stroke="#DF8E54" stroke-miterlimit="10"/>
<path d="M259.951 73.7637H344.817L389.268 150.734H476.154" stroke="#DF8E54" stroke-miterlimit="10"/>
<path d="M124.387 224.798V228.71H130.594V230.729H124.387V235.651H122V222.797H131.383V224.798H124.387Z" fill="#191818" fill-opacity="0.66"/>
<path d="M133.692 222.797H136.079V235.651H133.692V222.797Z" fill="#191818" fill-opacity="0.66"/>
<path d="M150.977 222.797V235.651H149.012L141.924 226.947V235.651H139.555V222.797H141.52L148.608 231.501V222.797H150.977Z" fill="#191818" fill-opacity="0.66"/>
<path d="M162.758 232.676H156.331L155.064 235.651H152.603L158.387 222.797H160.738L166.54 235.651H164.043L162.758 232.676ZM161.968 230.803L159.544 225.184L157.139 230.803H161.968Z" fill="#191818" fill-opacity="0.66"/>
<path d="M179.596 222.797V235.651H177.632L170.544 226.947V235.651H168.175V222.797H170.14L177.228 231.501V222.797H179.596Z" fill="#191818" fill-opacity="0.66"/>
<path d="M188.99 235.834C187.692 235.834 186.517 235.553 185.465 234.99C184.424 234.414 183.604 233.625 183.004 232.621C182.416 231.617 182.123 230.485 182.123 229.224C182.123 227.963 182.422 226.831 183.022 225.827C183.622 224.823 184.442 224.039 185.483 223.476C186.536 222.901 187.711 222.613 189.008 222.613C190.061 222.613 191.022 222.797 191.891 223.164C192.761 223.531 193.495 224.064 194.095 224.762L192.552 226.212C191.622 225.209 190.477 224.707 189.119 224.707C188.237 224.707 187.448 224.902 186.75 225.294C186.052 225.674 185.507 226.206 185.116 226.892C184.724 227.577 184.528 228.355 184.528 229.224C184.528 230.093 184.724 230.87 185.116 231.556C185.507 232.241 186.052 232.78 186.75 233.172C187.448 233.551 188.237 233.741 189.119 233.741C190.477 233.741 191.622 233.233 192.552 232.217L194.095 233.686C193.495 234.384 192.754 234.916 191.873 235.283C191.004 235.651 190.043 235.834 188.99 235.834Z" fill="#191818" fill-opacity="0.66"/>
<path d="M196.382 222.797H198.769V235.651H196.382V222.797Z" fill="#191818" fill-opacity="0.66"/>
<path d="M211.886 233.649V235.651H202.246V222.797H211.629V224.798H204.633V228.14H210.84V230.105H204.633V233.649H211.886Z" fill="#191818" fill-opacity="0.66"/>
<path d="M222.957 235.651L220.331 231.886C220.221 231.899 220.056 231.905 219.836 231.905H216.934V235.651H214.547V222.797H219.836C220.95 222.797 221.917 222.981 222.737 223.348C223.569 223.715 224.206 224.241 224.647 224.927C225.087 225.612 225.308 226.427 225.308 227.369C225.308 228.336 225.069 229.169 224.592 229.866C224.126 230.564 223.453 231.084 222.572 231.427L225.528 235.651H222.957ZM222.902 227.369C222.902 226.549 222.633 225.919 222.094 225.478C221.556 225.037 220.766 224.817 219.726 224.817H216.934V229.94H219.726C220.766 229.94 221.556 229.72 222.094 229.279C222.633 228.826 222.902 228.189 222.902 227.369Z" fill="#191818" fill-opacity="0.66"/>
<path d="M262.807 312.158L262.789 303.638L258.565 310.689H257.5L253.277 303.748V312.158H251V299.305H252.965L258.07 307.825L263.082 299.305H265.047L265.066 312.158H262.807Z" fill="#191818" fill-opacity="0.66"/>
<path d="M278.178 310.157V312.158H268.538V299.305H277.921V301.306H270.925V304.648H277.131V306.613H270.925V310.157H278.178Z" fill="#191818" fill-opacity="0.66"/>
<path d="M289.249 312.158L286.623 308.394C286.513 308.406 286.348 308.412 286.127 308.412H283.226V312.158H280.839V299.305H286.127C287.241 299.305 288.208 299.488 289.029 299.856C289.861 300.223 290.498 300.749 290.938 301.435C291.379 302.12 291.599 302.934 291.599 303.877C291.599 304.844 291.361 305.676 290.883 306.374C290.418 307.072 289.745 307.592 288.863 307.935L291.82 312.158H289.249ZM289.194 303.877C289.194 303.057 288.925 302.426 288.386 301.986C287.847 301.545 287.058 301.325 286.017 301.325H283.226V306.448H286.017C287.058 306.448 287.847 306.227 288.386 305.787C288.925 305.334 289.194 304.697 289.194 303.877Z" fill="#191818" fill-opacity="0.66"/>
<path d="M300.219 312.342C298.922 312.342 297.747 312.06 296.694 311.497C295.653 310.922 294.833 310.132 294.233 309.129C293.646 308.125 293.352 306.992 293.352 305.732C293.352 304.471 293.652 303.338 294.252 302.335C294.852 301.331 295.672 300.547 296.712 299.984C297.765 299.409 298.94 299.121 300.238 299.121C301.291 299.121 302.252 299.305 303.121 299.672C303.99 300.039 304.724 300.572 305.324 301.269L303.782 302.72C302.851 301.716 301.707 301.214 300.348 301.214C299.467 301.214 298.677 301.41 297.979 301.802C297.281 302.181 296.737 302.714 296.345 303.4C295.953 304.085 295.757 304.862 295.757 305.732C295.757 306.601 295.953 307.378 296.345 308.064C296.737 308.749 297.281 309.288 297.979 309.679C298.677 310.059 299.467 310.249 300.348 310.249C301.707 310.249 302.851 309.741 303.782 308.725L305.324 310.194C304.724 310.891 303.984 311.424 303.102 311.791C302.233 312.158 301.272 312.342 300.219 312.342Z" fill="#191818" fill-opacity="0.66"/>
<path d="M319.033 299.305V312.158H316.646V306.65H309.999V312.158H307.611V299.305H309.999V304.611H316.646V299.305H319.033Z" fill="#191818" fill-opacity="0.66"/>
<path d="M330.814 309.184H324.387L323.12 312.158H320.659L326.443 299.305H328.794L334.596 312.158H332.099L330.814 309.184ZM330.024 307.311L327.6 301.692L325.195 307.311H330.024Z" fill="#191818" fill-opacity="0.66"/>
<path d="M347.652 299.305V312.158H345.688L338.6 303.455V312.158H336.231V299.305H338.196L345.284 308.008V299.305H347.652Z" fill="#191818" fill-opacity="0.66"/>
<path d="M353.704 301.325H349.444V299.305H360.351V301.325H356.091V312.158H353.704V301.325Z" fill="#191818" fill-opacity="0.66"/>
<path d="M257.868 157.221C256.57 157.221 255.395 156.939 254.342 156.376C253.301 155.801 252.481 155.011 251.881 154.008C251.294 153.004 251 151.871 251 150.61C251 149.35 251.3 148.217 251.9 147.213C252.5 146.21 253.32 145.426 254.36 144.863C255.413 144.288 256.588 144 257.886 144C258.939 144 259.9 144.184 260.769 144.551C261.638 144.918 262.372 145.451 262.972 146.148L261.43 147.599C260.499 146.595 259.355 146.093 257.996 146.093C257.115 146.093 256.325 146.289 255.627 146.681C254.93 147.06 254.385 147.593 253.993 148.278C253.601 148.964 253.405 149.741 253.405 150.61C253.405 151.48 253.601 152.257 253.993 152.943C254.385 153.628 254.93 154.167 255.627 154.558C256.325 154.938 257.115 155.128 257.996 155.128C259.355 155.128 260.499 154.62 261.43 153.604L262.972 155.073C262.372 155.77 261.632 156.303 260.75 156.67C259.881 157.037 258.92 157.221 257.868 157.221Z" fill="#191818" fill-opacity="0.66"/>
<path d="M270.697 157.221C268.922 157.221 267.539 156.725 266.547 155.734C265.556 154.73 265.06 153.298 265.06 151.437V144.184H267.447V151.345C267.447 153.867 268.536 155.128 270.715 155.128C272.882 155.128 273.966 153.867 273.966 151.345V144.184H276.316V151.437C276.316 153.298 275.82 154.73 274.829 155.734C273.849 156.725 272.472 157.221 270.697 157.221Z" fill="#191818" fill-opacity="0.66"/>
<path d="M283.644 157.221C282.652 157.221 281.691 157.08 280.761 156.799C279.843 156.517 279.114 156.144 278.576 155.679L279.402 153.824C279.928 154.24 280.571 154.583 281.33 154.852C282.101 155.109 282.872 155.238 283.644 155.238C284.598 155.238 285.309 155.085 285.774 154.779C286.251 154.473 286.49 154.069 286.49 153.567C286.49 153.2 286.355 152.9 286.086 152.667C285.829 152.422 285.498 152.232 285.094 152.098C284.69 151.963 284.139 151.81 283.442 151.639C282.462 151.406 281.667 151.174 281.055 150.941C280.455 150.708 279.934 150.347 279.494 149.858C279.065 149.356 278.851 148.682 278.851 147.838C278.851 147.128 279.041 146.485 279.42 145.91C279.812 145.322 280.393 144.857 281.165 144.514C281.948 144.171 282.903 144 284.029 144C284.813 144 285.584 144.098 286.343 144.294C287.102 144.49 287.757 144.771 288.308 145.138L287.555 146.993C286.992 146.663 286.404 146.412 285.792 146.24C285.18 146.069 284.586 145.983 284.011 145.983C283.068 145.983 282.364 146.142 281.899 146.461C281.446 146.779 281.22 147.201 281.22 147.728C281.22 148.095 281.348 148.395 281.605 148.627C281.875 148.86 282.211 149.044 282.615 149.178C283.019 149.313 283.57 149.466 284.268 149.637C285.223 149.858 286.006 150.09 286.618 150.335C287.23 150.568 287.751 150.929 288.179 151.418C288.62 151.908 288.84 152.569 288.84 153.402C288.84 154.112 288.644 154.754 288.253 155.33C287.873 155.905 287.292 156.364 286.508 156.707C285.725 157.05 284.77 157.221 283.644 157.221Z" fill="#191818" fill-opacity="0.66"/>
<path d="M293.635 146.203H289.375V144.184H300.283V146.203H296.022V157.037H293.635V146.203Z" fill="#191818" fill-opacity="0.66"/>
<path d="M307.899 157.221C306.589 157.221 305.408 156.939 304.355 156.376C303.303 155.801 302.476 155.011 301.876 154.008C301.277 152.991 300.977 151.859 300.977 150.61C300.977 149.362 301.277 148.236 301.876 147.232C302.476 146.216 303.303 145.426 304.355 144.863C305.408 144.288 306.589 144 307.899 144C309.209 144 310.39 144.288 311.443 144.863C312.496 145.426 313.322 146.21 313.922 147.213C314.522 148.217 314.822 149.35 314.822 150.61C314.822 151.871 314.522 153.004 313.922 154.008C313.322 155.011 312.496 155.801 311.443 156.376C310.39 156.939 309.209 157.221 307.899 157.221ZM307.899 155.128C308.756 155.128 309.527 154.938 310.213 154.558C310.898 154.167 311.437 153.628 311.829 152.943C312.221 152.245 312.416 151.467 312.416 150.61C312.416 149.754 312.221 148.982 311.829 148.297C311.437 147.599 310.898 147.06 310.213 146.681C309.527 146.289 308.756 146.093 307.899 146.093C307.042 146.093 306.271 146.289 305.586 146.681C304.9 147.06 304.361 147.599 303.97 148.297C303.578 148.982 303.382 149.754 303.382 150.61C303.382 151.467 303.578 152.245 303.97 152.943C304.361 153.628 304.9 154.167 305.586 154.558C306.271 154.938 307.042 155.128 307.899 155.128Z" fill="#191818" fill-opacity="0.66"/>
<path d="M329.159 157.037L329.141 148.517L324.917 155.568H323.852L319.629 148.627V157.037H317.352V144.184H319.317L324.422 152.704L329.435 144.184H331.399L331.418 157.037H329.159Z" fill="#191818" fill-opacity="0.66"/>
<path d="M344.53 155.036V157.037H334.89V144.184H344.273V146.185H337.277V149.527H343.483V151.492H337.277V155.036H344.53Z" fill="#191818" fill-opacity="0.66"/>
<path d="M355.601 157.037L352.975 153.273C352.865 153.285 352.7 153.291 352.479 153.291H349.578V157.037H347.191V144.184H352.479C353.593 144.184 354.561 144.367 355.381 144.734C356.213 145.102 356.85 145.628 357.29 146.314C357.731 146.999 357.951 147.813 357.951 148.756C357.951 149.723 357.713 150.555 357.235 151.253C356.77 151.951 356.097 152.471 355.215 152.814L358.172 157.037H355.601ZM355.546 148.756C355.546 147.936 355.277 147.305 354.738 146.865C354.199 146.424 353.41 146.203 352.369 146.203H349.578V151.327H352.369C353.41 151.327 354.199 151.106 354.738 150.666C355.277 150.213 355.546 149.576 355.546 148.756Z" fill="#191818" fill-opacity="0.66"/>
</svg>
