<svg width="469" height="357" viewBox="0 0 469 357" fill="none" xmlns="http://www.w3.org/2000/svg">
<path d="M267.429 178.572H204.563L171.135 236.434L204.065 293.297L267.429 292.799L300.359 235.935L267.429 178.572Z" fill="#DF8E54" fill-opacity="0.18"/>
<path d="M172.473 10.2129L204.062 64.4522L172.473 10.2129Z" stroke="#DF8E54" stroke-width="0.690223" stroke-miterlimit="10"/>
<path d="M398.106 293.328L363.509 236.077H300.331L267.238 178.827H204.062L170.969 121.7H106.287L76.2021 67.4648L106.287 121.7H170.969L204.062 178.827H267.238L300.331 236.077H363.509L398.106 293.328Z" stroke="#DF8E54" stroke-width="0.690223" stroke-miterlimit="10"/>
<path d="M11.5215 178.953H74.6976L107.792 236.203H170.969L204.062 293.453H267.24L298.829 347.693L267.24 293.453H204.062L170.969 236.203H107.792L74.6976 178.953H11.5215Z" stroke="#DF8E54" stroke-width="0.690223" stroke-miterlimit="10"/>
<path d="M267.24 64.4504L298.829 10.2129L267.24 64.4504Z" stroke="#DF8E54" stroke-width="0.690223" stroke-miterlimit="10"/>
<path d="M365.015 121.7L395.746 67.8428L365.015 121.7Z" stroke="#DF8E54" stroke-width="0.690223" stroke-miterlimit="10"/>
<path d="M363.509 236.203L398.104 178.953L363.509 236.203Z" stroke="#DF8E54" stroke-width="0.690223" stroke-miterlimit="10"/>
<path d="M267.24 178.951L300.331 121.703L267.24 178.951Z" stroke="#DF8E54" stroke-width="0.690223" stroke-miterlimit="10"/>
<path d="M170.969 121.7L204.062 64.4502L170.969 121.7Z" stroke="#DF8E54" stroke-width="0.690223" stroke-miterlimit="10"/>
<path d="M74.6982 178.953L106.287 121.701L74.6982 178.953Z" stroke="#DF8E54" stroke-width="0.690223" stroke-miterlimit="10"/>
<path d="M170.788 236.652L203.881 179.402L170.788 236.652Z" stroke="#DF8E54" stroke-width="0.690223" stroke-miterlimit="10"/>
<path d="M267.457 293.214L300.55 235.966L267.457 293.214Z" stroke="#DF8E54" stroke-width="0.690223" stroke-miterlimit="10"/>
<path d="M76.2021 290.441L107.791 236.203L76.2021 290.441Z" stroke="#DF8E54" stroke-width="0.690223" stroke-miterlimit="10"/>
<path d="M172.473 347.691L204.062 293.451L172.473 347.691Z" stroke="#DF8E54" stroke-width="0.690223" stroke-miterlimit="10"/>
<path d="M204.062 64.4502H267.24L300.331 121.702H365.013L398.104 178.952H459.778H398.104L365.013 121.702H300.331L267.24 64.4502H204.062Z" stroke="#DF8E54" stroke-width="0.690223" stroke-miterlimit="10"/>
<g filter="url(#filter0_d_41_189)">
<path d="M384.077 159.021H298.545L254.096 236.271L298.545 312.849H383.403L427.853 235.599L384.077 159.021Z" fill="#FFF9F5"/>
<path d="M384.077 159.021H298.545L254.096 236.271L298.545 312.849H383.403L427.853 235.599L384.077 159.021Z" stroke="#DF8E54" stroke-width="2"/>
</g>
<path d="M321.231 196.15C320.421 196.15 319.636 196.035 318.876 195.805C318.126 195.575 317.531 195.27 317.091 194.89L317.766 193.375C318.196 193.715 318.721 193.995 319.341 194.215C319.971 194.425 320.601 194.53 321.231 194.53C322.011 194.53 322.591 194.405 322.971 194.155C323.361 193.905 323.556 193.575 323.556 193.165C323.556 192.865 323.446 192.62 323.226 192.43C323.016 192.23 322.746 192.075 322.416 191.965C322.086 191.855 321.636 191.73 321.066 191.59C320.266 191.4 319.616 191.21 319.116 191.02C318.626 190.83 318.201 190.535 317.841 190.135C317.491 189.725 317.316 189.175 317.316 188.485C317.316 187.905 317.471 187.38 317.781 186.91C318.101 186.43 318.576 186.05 319.206 185.77C319.846 185.49 320.626 185.35 321.546 185.35C322.186 185.35 322.816 185.43 323.436 185.59C324.056 185.75 324.591 185.98 325.041 186.28L324.426 187.795C323.966 187.525 323.486 187.32 322.986 187.18C322.486 187.04 322.001 186.97 321.531 186.97C320.761 186.97 320.186 187.1 319.806 187.36C319.436 187.62 319.251 187.965 319.251 188.395C319.251 188.695 319.356 188.94 319.566 189.13C319.786 189.32 320.061 189.47 320.391 189.58C320.721 189.69 321.171 189.815 321.741 189.955C322.521 190.135 323.161 190.325 323.661 190.525C324.161 190.715 324.586 191.01 324.936 191.41C325.296 191.81 325.476 192.35 325.476 193.03C325.476 193.61 325.316 194.135 324.996 194.605C324.686 195.075 324.211 195.45 323.571 195.73C322.931 196.01 322.151 196.15 321.231 196.15ZM329.394 187.15H325.914V185.5H334.824V187.15H331.344V196H329.394V187.15ZM342.57 193.57H337.32L336.285 196H334.275L339 185.5H340.92L345.66 196H343.62L342.57 193.57ZM341.925 192.04L339.945 187.45L337.98 192.04H341.925ZM353.865 196L351.72 192.925C351.63 192.935 351.495 192.94 351.315 192.94H348.945V196H346.995V185.5H351.315C352.225 185.5 353.015 185.65 353.685 185.95C354.365 186.25 354.885 186.68 355.245 187.24C355.605 187.8 355.785 188.465 355.785 189.235C355.785 190.025 355.59 190.705 355.2 191.275C354.82 191.845 354.27 192.27 353.55 192.55L355.965 196H353.865ZM353.82 189.235C353.82 188.565 353.6 188.05 353.16 187.69C352.72 187.33 352.075 187.15 351.225 187.15H348.945V191.335H351.225C352.075 191.335 352.72 191.155 353.16 190.795C353.6 190.425 353.82 189.905 353.82 189.235ZM359.95 187.15H356.47V185.5H365.38V187.15H361.9V196H359.95V187.15ZM296.238 205.5H298.188V216H296.238V205.5ZM310.673 216L310.658 209.04L307.208 214.8H306.338L302.888 209.13V216H301.028V205.5H302.633L306.803 212.46L310.898 205.5H312.503L312.518 216H310.673ZM319.674 205.5C320.584 205.5 321.374 205.65 322.044 205.95C322.724 206.25 323.244 206.68 323.604 207.24C323.964 207.8 324.144 208.465 324.144 209.235C324.144 209.995 323.964 210.66 323.604 211.23C323.244 211.79 322.724 212.22 322.044 212.52C321.374 212.82 320.584 212.97 319.674 212.97H317.304V216H315.354V205.5H319.674ZM319.584 211.32C320.434 211.32 321.079 211.14 321.519 210.78C321.959 210.42 322.179 209.905 322.179 209.235C322.179 208.565 321.959 208.05 321.519 207.69C321.079 207.33 320.434 207.15 319.584 207.15H317.304V211.32H319.584ZM332.962 216L330.817 212.925C330.727 212.935 330.592 212.94 330.412 212.94H328.042V216H326.092V205.5H330.412C331.322 205.5 332.112 205.65 332.782 205.95C333.462 206.25 333.982 206.68 334.342 207.24C334.702 207.8 334.882 208.465 334.882 209.235C334.882 210.025 334.687 210.705 334.297 211.275C333.917 211.845 333.367 212.27 332.647 212.55L335.062 216H332.962ZM332.917 209.235C332.917 208.565 332.697 208.05 332.257 207.69C331.817 207.33 331.172 207.15 330.322 207.15H328.042V211.335H330.322C331.172 211.335 331.817 211.155 332.257 210.795C332.697 210.425 332.917 209.905 332.917 209.235ZM341.968 216.15C340.898 216.15 339.933 215.92 339.073 215.46C338.213 214.99 337.538 214.345 337.048 213.525C336.558 212.695 336.313 211.77 336.313 210.75C336.313 209.73 336.558 208.81 337.048 207.99C337.538 207.16 338.213 206.515 339.073 206.055C339.933 205.585 340.898 205.35 341.968 205.35C343.038 205.35 344.003 205.585 344.863 206.055C345.723 206.515 346.398 207.155 346.888 207.975C347.378 208.795 347.623 209.72 347.623 210.75C347.623 211.78 347.378 212.705 346.888 213.525C346.398 214.345 345.723 214.99 344.863 215.46C344.003 215.92 343.038 216.15 341.968 216.15ZM341.968 214.44C342.668 214.44 343.298 214.285 343.858 213.975C344.418 213.655 344.858 213.215 345.178 212.655C345.498 212.085 345.658 211.45 345.658 210.75C345.658 210.05 345.498 209.42 345.178 208.86C344.858 208.29 344.418 207.85 343.858 207.54C343.298 207.22 342.668 207.06 341.968 207.06C341.268 207.06 340.638 207.22 340.078 207.54C339.518 207.85 339.078 208.29 338.758 208.86C338.438 209.42 338.278 210.05 338.278 210.75C338.278 211.45 338.438 212.085 338.758 212.655C339.078 213.215 339.518 213.655 340.078 213.975C340.638 214.285 341.268 214.44 341.968 214.44ZM358.953 205.5L354.378 216H352.458L347.868 205.5H349.983L353.478 213.6L357.003 205.5H358.953ZM360.061 205.5H362.011V216H360.061V205.5ZM374.181 205.5V216H372.576L366.786 208.89V216H364.851V205.5H366.456L372.246 212.61V205.5H374.181ZM384.165 210.63H386.01V214.815C385.47 215.245 384.84 215.575 384.12 215.805C383.4 216.035 382.66 216.15 381.9 216.15C380.83 216.15 379.865 215.92 379.005 215.46C378.145 214.99 377.47 214.345 376.98 213.525C376.49 212.705 376.245 211.78 376.245 210.75C376.245 209.72 376.49 208.795 376.98 207.975C377.47 207.155 378.145 206.515 379.005 206.055C379.875 205.585 380.85 205.35 381.93 205.35C382.81 205.35 383.61 205.495 384.33 205.785C385.05 206.075 385.655 206.5 386.145 207.06L384.915 208.26C384.115 207.46 383.15 207.06 382.02 207.06C381.28 207.06 380.62 207.215 380.04 207.525C379.47 207.835 379.02 208.27 378.69 208.83C378.37 209.39 378.21 210.03 378.21 210.75C378.21 211.45 378.37 212.08 378.69 212.64C379.02 213.2 379.47 213.64 380.04 213.96C380.62 214.28 381.275 214.44 382.005 214.44C382.825 214.44 383.545 214.26 384.165 213.9V210.63ZM324.491 232.295V236H322.541V232.325L318.416 225.5H320.501L323.576 230.615L326.681 225.5H328.601L324.491 232.295ZM334.329 236.15C333.259 236.15 332.294 235.92 331.434 235.46C330.574 234.99 329.899 234.345 329.409 233.525C328.919 232.695 328.674 231.77 328.674 230.75C328.674 229.73 328.919 228.81 329.409 227.99C329.899 227.16 330.574 226.515 331.434 226.055C332.294 225.585 333.259 225.35 334.329 225.35C335.399 225.35 336.364 225.585 337.224 226.055C338.084 226.515 338.759 227.155 339.249 227.975C339.739 228.795 339.984 229.72 339.984 230.75C339.984 231.78 339.739 232.705 339.249 233.525C338.759 234.345 338.084 234.99 337.224 235.46C336.364 235.92 335.399 236.15 334.329 236.15ZM334.329 234.44C335.029 234.44 335.659 234.285 336.219 233.975C336.779 233.655 337.219 233.215 337.539 232.655C337.859 232.085 338.019 231.45 338.019 230.75C338.019 230.05 337.859 229.42 337.539 228.86C337.219 228.29 336.779 227.85 336.219 227.54C335.659 227.22 335.029 227.06 334.329 227.06C333.629 227.06 332.999 227.22 332.439 227.54C331.879 227.85 331.439 228.29 331.119 228.86C330.799 229.42 330.639 230.05 330.639 230.75C330.639 231.45 330.799 232.085 331.119 232.655C331.439 233.215 331.879 233.655 332.439 233.975C332.999 234.285 333.629 234.44 334.329 234.44ZM346.566 236.15C345.116 236.15 343.986 235.745 343.176 234.935C342.366 234.115 341.961 232.945 341.961 231.425V225.5H343.911V231.35C343.911 233.41 344.801 234.44 346.581 234.44C348.351 234.44 349.236 233.41 349.236 231.35V225.5H351.156V231.425C351.156 232.945 350.751 234.115 349.941 234.935C349.141 235.745 348.016 236.15 346.566 236.15ZM360.757 236L358.612 232.925C358.522 232.935 358.387 232.94 358.207 232.94H355.837V236H353.887V225.5H358.207C359.117 225.5 359.907 225.65 360.577 225.95C361.257 226.25 361.777 226.68 362.137 227.24C362.497 227.8 362.677 228.465 362.677 229.235C362.677 230.025 362.482 230.705 362.092 231.275C361.712 231.845 361.162 232.27 360.442 232.55L362.857 236H360.757ZM360.712 229.235C360.712 228.565 360.492 228.05 360.052 227.69C359.612 227.33 358.967 227.15 358.117 227.15H355.837V231.335H358.117C358.967 231.335 359.612 231.155 360.052 230.795C360.492 230.425 360.712 229.905 360.712 229.235ZM302.871 256.15C301.811 256.15 300.851 255.92 299.991 255.46C299.141 254.99 298.471 254.345 297.981 253.525C297.501 252.705 297.261 251.78 297.261 250.75C297.261 249.72 297.506 248.795 297.996 247.975C298.486 247.155 299.156 246.515 300.006 246.055C300.866 245.585 301.826 245.35 302.886 245.35C303.746 245.35 304.531 245.5 305.241 245.8C305.951 246.1 306.551 246.535 307.041 247.105L305.781 248.29C305.021 247.47 304.086 247.06 302.976 247.06C302.256 247.06 301.611 247.22 301.041 247.54C300.471 247.85 300.026 248.285 299.706 248.845C299.386 249.405 299.226 250.04 299.226 250.75C299.226 251.46 299.386 252.095 299.706 252.655C300.026 253.215 300.471 253.655 301.041 253.975C301.611 254.285 302.256 254.44 302.976 254.44C304.086 254.44 305.021 254.025 305.781 253.195L307.041 254.395C306.551 254.965 305.946 255.4 305.226 255.7C304.516 256 303.731 256.15 302.871 256.15ZM313.351 256.15C311.901 256.15 310.771 255.745 309.961 254.935C309.151 254.115 308.746 252.945 308.746 251.425V245.5H310.696V251.35C310.696 253.41 311.586 254.44 313.366 254.44C315.136 254.44 316.021 253.41 316.021 251.35V245.5H317.941V251.425C317.941 252.945 317.536 254.115 316.726 254.935C315.926 255.745 314.801 256.15 313.351 256.15ZM323.927 256.15C323.117 256.15 322.332 256.035 321.572 255.805C320.822 255.575 320.227 255.27 319.787 254.89L320.462 253.375C320.892 253.715 321.417 253.995 322.037 254.215C322.667 254.425 323.297 254.53 323.927 254.53C324.707 254.53 325.287 254.405 325.667 254.155C326.057 253.905 326.252 253.575 326.252 253.165C326.252 252.865 326.142 252.62 325.922 252.43C325.712 252.23 325.442 252.075 325.112 251.965C324.782 251.855 324.332 251.73 323.762 251.59C322.962 251.4 322.312 251.21 321.812 251.02C321.322 250.83 320.897 250.535 320.537 250.135C320.187 249.725 320.012 249.175 320.012 248.485C320.012 247.905 320.167 247.38 320.477 246.91C320.797 246.43 321.272 246.05 321.902 245.77C322.542 245.49 323.322 245.35 324.242 245.35C324.882 245.35 325.512 245.43 326.132 245.59C326.752 245.75 327.287 245.98 327.737 246.28L327.122 247.795C326.662 247.525 326.182 247.32 325.682 247.18C325.182 247.04 324.697 246.97 324.227 246.97C323.457 246.97 322.882 247.1 322.502 247.36C322.132 247.62 321.947 247.965 321.947 248.395C321.947 248.695 322.052 248.94 322.262 249.13C322.482 249.32 322.757 249.47 323.087 249.58C323.417 249.69 323.867 249.815 324.437 249.955C325.217 250.135 325.857 250.325 326.357 250.525C326.857 250.715 327.282 251.01 327.632 251.41C327.992 251.81 328.172 252.35 328.172 253.03C328.172 253.61 328.012 254.135 327.692 254.605C327.382 255.075 326.907 255.45 326.267 255.73C325.627 256.01 324.847 256.15 323.927 256.15ZM332.089 247.15H328.609V245.5H337.519V247.15H334.039V256H332.089V247.15ZM343.741 256.15C342.671 256.15 341.706 255.92 340.846 255.46C339.986 254.99 339.311 254.345 338.821 253.525C338.331 252.695 338.086 251.77 338.086 250.75C338.086 249.73 338.331 248.81 338.821 247.99C339.311 247.16 339.986 246.515 340.846 246.055C341.706 245.585 342.671 245.35 343.741 245.35C344.811 245.35 345.776 245.585 346.636 246.055C347.496 246.515 348.171 247.155 348.661 247.975C349.151 248.795 349.396 249.72 349.396 250.75C349.396 251.78 349.151 252.705 348.661 253.525C348.171 254.345 347.496 254.99 346.636 255.46C345.776 255.92 344.811 256.15 343.741 256.15ZM343.741 254.44C344.441 254.44 345.071 254.285 345.631 253.975C346.191 253.655 346.631 253.215 346.951 252.655C347.271 252.085 347.431 251.45 347.431 250.75C347.431 250.05 347.271 249.42 346.951 248.86C346.631 248.29 346.191 247.85 345.631 247.54C345.071 247.22 344.441 247.06 343.741 247.06C343.041 247.06 342.411 247.22 341.851 247.54C341.291 247.85 340.851 248.29 340.531 248.86C340.211 249.42 340.051 250.05 340.051 250.75C340.051 251.45 340.211 252.085 340.531 252.655C340.851 253.215 341.291 253.655 341.851 253.975C342.411 254.285 343.041 254.44 343.741 254.44ZM361.108 256L361.093 249.04L357.643 254.8H356.773L353.323 249.13V256H351.463V245.5H353.068L357.238 252.46L361.333 245.5H362.938L362.953 256H361.108ZM373.664 254.365V256H365.789V245.5H373.454V247.135H367.739V249.865H372.809V251.47H367.739V254.365H373.664ZM382.708 256L380.563 252.925C380.473 252.935 380.338 252.94 380.158 252.94H377.788V256H375.838V245.5H380.158C381.068 245.5 381.858 245.65 382.528 245.95C383.208 246.25 383.728 246.68 384.088 247.24C384.448 247.8 384.628 248.465 384.628 249.235C384.628 250.025 384.433 250.705 384.043 251.275C383.663 251.845 383.113 252.27 382.393 252.55L384.808 256H382.708ZM382.663 249.235C382.663 248.565 382.443 248.05 382.003 247.69C381.563 247.33 380.918 247.15 380.068 247.15H377.788V251.335H380.068C380.918 251.335 381.563 251.155 382.003 250.795C382.443 250.425 382.663 249.905 382.663 249.235ZM307.711 276.15C306.901 276.15 306.116 276.035 305.356 275.805C304.606 275.575 304.011 275.27 303.571 274.89L304.246 273.375C304.676 273.715 305.201 273.995 305.821 274.215C306.451 274.425 307.081 274.53 307.711 274.53C308.491 274.53 309.071 274.405 309.451 274.155C309.841 273.905 310.036 273.575 310.036 273.165C310.036 272.865 309.926 272.62 309.706 272.43C309.496 272.23 309.226 272.075 308.896 271.965C308.566 271.855 308.116 271.73 307.546 271.59C306.746 271.4 306.096 271.21 305.596 271.02C305.106 270.83 304.681 270.535 304.321 270.135C303.971 269.725 303.796 269.175 303.796 268.485C303.796 267.905 303.951 267.38 304.261 266.91C304.581 266.43 305.056 266.05 305.686 265.77C306.326 265.49 307.106 265.35 308.026 265.35C308.666 265.35 309.296 265.43 309.916 265.59C310.536 265.75 311.071 265.98 311.521 266.28L310.906 267.795C310.446 267.525 309.966 267.32 309.466 267.18C308.966 267.04 308.481 266.97 308.011 266.97C307.241 266.97 306.666 267.1 306.286 267.36C305.916 267.62 305.731 267.965 305.731 268.395C305.731 268.695 305.836 268.94 306.046 269.13C306.266 269.32 306.541 269.47 306.871 269.58C307.201 269.69 307.651 269.815 308.221 269.955C309.001 270.135 309.641 270.325 310.141 270.525C310.641 270.715 311.066 271.01 311.416 271.41C311.776 271.81 311.956 272.35 311.956 273.03C311.956 273.61 311.796 274.135 311.476 274.605C311.166 275.075 310.691 275.45 310.051 275.73C309.411 276.01 308.631 276.15 307.711 276.15ZM318.404 276.15C316.954 276.15 315.824 275.745 315.014 274.935C314.204 274.115 313.799 272.945 313.799 271.425V265.5H315.749V271.35C315.749 273.41 316.639 274.44 318.419 274.44C320.189 274.44 321.074 273.41 321.074 271.35V265.5H322.994V271.425C322.994 272.945 322.589 274.115 321.779 274.935C320.979 275.745 319.854 276.15 318.404 276.15ZM330.585 276.15C329.525 276.15 328.565 275.92 327.705 275.46C326.855 274.99 326.185 274.345 325.695 273.525C325.215 272.705 324.975 271.78 324.975 270.75C324.975 269.72 325.22 268.795 325.71 267.975C326.2 267.155 326.87 266.515 327.72 266.055C328.58 265.585 329.54 265.35 330.6 265.35C331.46 265.35 332.245 265.5 332.955 265.8C333.665 266.1 334.265 266.535 334.755 267.105L333.495 268.29C332.735 267.47 331.8 267.06 330.69 267.06C329.97 267.06 329.325 267.22 328.755 267.54C328.185 267.85 327.74 268.285 327.42 268.845C327.1 269.405 326.94 270.04 326.94 270.75C326.94 271.46 327.1 272.095 327.42 272.655C327.74 273.215 328.185 273.655 328.755 273.975C329.325 274.285 329.97 274.44 330.69 274.44C331.8 274.44 332.735 274.025 333.495 273.195L334.755 274.395C334.265 274.965 333.66 275.4 332.94 275.7C332.23 276 331.445 276.15 330.585 276.15ZM341.264 276.15C340.204 276.15 339.244 275.92 338.384 275.46C337.534 274.99 336.864 274.345 336.374 273.525C335.894 272.705 335.654 271.78 335.654 270.75C335.654 269.72 335.899 268.795 336.389 267.975C336.879 267.155 337.549 266.515 338.399 266.055C339.259 265.585 340.219 265.35 341.279 265.35C342.139 265.35 342.924 265.5 343.634 265.8C344.344 266.1 344.944 266.535 345.434 267.105L344.174 268.29C343.414 267.47 342.479 267.06 341.369 267.06C340.649 267.06 340.004 267.22 339.434 267.54C338.864 267.85 338.419 268.285 338.099 268.845C337.779 269.405 337.619 270.04 337.619 270.75C337.619 271.46 337.779 272.095 338.099 272.655C338.419 273.215 338.864 273.655 339.434 273.975C340.004 274.285 340.649 274.44 341.369 274.44C342.479 274.44 343.414 274.025 344.174 273.195L345.434 274.395C344.944 274.965 344.339 275.4 343.619 275.7C342.909 276 342.124 276.15 341.264 276.15ZM355.178 274.365V276H347.303V265.5H354.968V267.135H349.253V269.865H354.323V271.47H349.253V274.365H355.178ZM360.606 276.15C359.796 276.15 359.011 276.035 358.251 275.805C357.501 275.575 356.906 275.27 356.466 274.89L357.141 273.375C357.571 273.715 358.096 273.995 358.716 274.215C359.346 274.425 359.976 274.53 360.606 274.53C361.386 274.53 361.966 274.405 362.346 274.155C362.736 273.905 362.931 273.575 362.931 273.165C362.931 272.865 362.821 272.62 362.601 272.43C362.391 272.23 362.121 272.075 361.791 271.965C361.461 271.855 361.011 271.73 360.441 271.59C359.641 271.4 358.991 271.21 358.491 271.02C358.001 270.83 357.576 270.535 357.216 270.135C356.866 269.725 356.691 269.175 356.691 268.485C356.691 267.905 356.846 267.38 357.156 266.91C357.476 266.43 357.951 266.05 358.581 265.77C359.221 265.49 360.001 265.35 360.921 265.35C361.561 265.35 362.191 265.43 362.811 265.59C363.431 265.75 363.966 265.98 364.416 266.28L363.801 267.795C363.341 267.525 362.861 267.32 362.361 267.18C361.861 267.04 361.376 266.97 360.906 266.97C360.136 266.97 359.561 267.1 359.181 267.36C358.811 267.62 358.626 267.965 358.626 268.395C358.626 268.695 358.731 268.94 358.941 269.13C359.161 269.32 359.436 269.47 359.766 269.58C360.096 269.69 360.546 269.815 361.116 269.955C361.896 270.135 362.536 270.325 363.036 270.525C363.536 270.715 363.961 271.01 364.311 271.41C364.671 271.81 364.851 272.35 364.851 273.03C364.851 273.61 364.691 274.135 364.371 274.605C364.061 275.075 363.586 275.45 362.946 275.73C362.306 276.01 361.526 276.15 360.606 276.15ZM370.04 276.15C369.23 276.15 368.445 276.035 367.685 275.805C366.935 275.575 366.34 275.27 365.9 274.89L366.575 273.375C367.005 273.715 367.53 273.995 368.15 274.215C368.78 274.425 369.41 274.53 370.04 274.53C370.82 274.53 371.4 274.405 371.78 274.155C372.17 273.905 372.365 273.575 372.365 273.165C372.365 272.865 372.255 272.62 372.035 272.43C371.825 272.23 371.555 272.075 371.225 271.965C370.895 271.855 370.445 271.73 369.875 271.59C369.075 271.4 368.425 271.21 367.925 271.02C367.435 270.83 367.01 270.535 366.65 270.135C366.3 269.725 366.125 269.175 366.125 268.485C366.125 267.905 366.28 267.38 366.59 266.91C366.91 266.43 367.385 266.05 368.015 265.77C368.655 265.49 369.435 265.35 370.355 265.35C370.995 265.35 371.625 265.43 372.245 265.59C372.865 265.75 373.4 265.98 373.85 266.28L373.235 267.795C372.775 267.525 372.295 267.32 371.795 267.18C371.295 267.04 370.81 266.97 370.34 266.97C369.57 266.97 368.995 267.1 368.615 267.36C368.245 267.62 368.06 267.965 368.06 268.395C368.06 268.695 368.165 268.94 368.375 269.13C368.595 269.32 368.87 269.47 369.2 269.58C369.53 269.69 369.98 269.815 370.55 269.955C371.33 270.135 371.97 270.325 372.47 270.525C372.97 270.715 373.395 271.01 373.745 271.41C374.105 271.81 374.285 272.35 374.285 273.03C374.285 273.61 374.125 274.135 373.805 274.605C373.495 275.075 373.02 275.45 372.38 275.73C371.74 276.01 370.96 276.15 370.04 276.15ZM330.947 285.5V296H329.342L323.552 288.89V296H321.617V285.5H323.222L329.012 292.61V285.5H330.947ZM338.665 296.15C337.595 296.15 336.63 295.92 335.77 295.46C334.91 294.99 334.235 294.345 333.745 293.525C333.255 292.695 333.01 291.77 333.01 290.75C333.01 289.73 333.255 288.81 333.745 287.99C334.235 287.16 334.91 286.515 335.77 286.055C336.63 285.585 337.595 285.35 338.665 285.35C339.735 285.35 340.7 285.585 341.56 286.055C342.42 286.515 343.095 287.155 343.585 287.975C344.075 288.795 344.32 289.72 344.32 290.75C344.32 291.78 344.075 292.705 343.585 293.525C343.095 294.345 342.42 294.99 341.56 295.46C340.7 295.92 339.735 296.15 338.665 296.15ZM338.665 294.44C339.365 294.44 339.995 294.285 340.555 293.975C341.115 293.655 341.555 293.215 341.875 292.655C342.195 292.085 342.355 291.45 342.355 290.75C342.355 290.05 342.195 289.42 341.875 288.86C341.555 288.29 341.115 287.85 340.555 287.54C339.995 287.22 339.365 287.06 338.665 287.06C337.965 287.06 337.335 287.22 336.775 287.54C336.215 287.85 335.775 288.29 335.455 288.86C335.135 289.42 334.975 290.05 334.975 290.75C334.975 291.45 335.135 292.085 335.455 292.655C335.775 293.215 336.215 293.655 336.775 293.975C337.335 294.285 337.965 294.44 338.665 294.44ZM361.395 285.5L357.915 296H355.845L353.25 288.23L350.61 296H348.525L345.045 285.5H347.07L349.68 293.48L352.395 285.5H354.195L356.85 293.525L359.535 285.5H361.395Z" fill="#DF8E54"/>
<defs>
<filter id="filter0_d_41_189" x="235.94" y="141.021" width="198.065" height="177.829" filterUnits="userSpaceOnUse" color-interpolation-filters="sRGB">
<feFlood flood-opacity="0" result="BackgroundImageFix"/>
<feColorMatrix in="SourceAlpha" type="matrix" values="0 0 0 0 0 0 0 0 0 0 0 0 0 0 0 0 0 0 127 0" result="hardAlpha"/>
<feOffset dx="-6" dy="-6"/>
<feGaussianBlur stdDeviation="5.5"/>
<feComposite in2="hardAlpha" operator="out"/>
<feColorMatrix type="matrix" values="0 0 0 0 0.87451 0 0 0 0 0.556863 0 0 0 0 0.329412 0 0 0 0.11 0"/>
<feBlend mode="normal" in2="BackgroundImageFix" result="effect1_dropShadow_41_189"/>
<feBlend mode="normal" in="SourceGraphic" in2="effect1_dropShadow_41_189" result="shape"/>
</filter>
</defs>
</svg>
